<svg xmlns="http://www.w3.org/2000/svg" version="1.1" xmlns:xlink="http://www.w3.org/1999/xlink" xmlns:svgjs="http://svgjs.com/svgjs" width="1440" height="560" preserveAspectRatio="none" viewBox="0 0 1440 560"><g mask="url(&quot;#SvgjsMask1097&quot;)" fill="none"><rect width="1440" height="560" x="0" y="0" fill="url(#SvgjsLinearGradient1098)"></rect><path d="M 0,26 C 72,62.2 216,209.6 360,207 C 504,204.4 576,19.2 720,13 C 864,6.8 936,151 1080,176 C 1224,201 1368,145.6 1440,138L1440 560L0 560z" fill="#184a7e"></path><path d="M 0,546 C 96,520.4 288,423 480,418 C 672,413 768,527.6 960,521 C 1152,514.4 1344,412.2 1440,385L1440 560L0 560z" fill="#2264ab"></path></g><defs><mask id="SvgjsMask1097"><rect width="1440" height="560" fill="#ffffff"></rect></mask><linearGradient x1="50%" y1="0%" x2="50%" y2="100%" gradientUnits="userSpaceOnUse" id="SvgjsLinearGradient1098"><stop stop-color="#0e2a47" offset="0"></stop><stop stop-color="rgba(0, 69, 158, 1)" offset="0.27"></stop><stop stop-color="rgba(0, 69, 158, 1)" offset="0.29"></stop><stop stop-color="rgba(0, 69, 158, 1)" offset="0.79"></stop><stop stop-color="rgba(0, 69, 158, 1)" offset="1"></stop></linearGradient></defs></svg>